<?xml version="1.0" encoding="UTF-8"?>
<svg id="Layer_1" data-name="Layer 1" xmlns="http://www.w3.org/2000/svg" viewBox="0 0 50 30">
  <path d="m31.12,2.62l-.32-.69h-.08s-.01-.01-.01-.01h-.06s-.01-.02-.01-.02h-.03s-.01-.02-.01-.02h-.09s-.01-.01-.01-.01h-.01s-.02-.04-.02-.04h-.09s-.01-.01-.01-.01h-.06s0,0,0,0h-.04s-.01-.02-.01-.02h-.09s-.01-.01-.01-.01h-.05s-.02-.03-.02-.03h-.03s-.01-.02-.01-.02h-.09s-.01-.01-.01-.01h-.03s0,0,0,0h-.1s-.01-.01-.01-.01h-.06s-.01-.02-.01-.02h-.03s-.01-.02-.01-.02h-.08s-.02-.03-.02-.03h-.03s-.01-.02-.01-.02h-.09s0,0,0,0h-.07s-.01-.02-.01-.02h-.03s-.01-.02-.01-.02h-.09s-.01-.01-.01-.01h-.04s-.02-.03-.02-.03h-.06s-.01-.01-.01-.01h-.06s0,0,0,0h-.04s-.01-.02-.01-.02h-.09s-.01-.01-.01-.01h-.06s-.01-.02-.01-.02h-.03s-.01-.02-.01-.02h-.08s-.02-.03-.02-.03h-.06s-.01-.02-.01-.02h-.06s0,0,0,0h-.07s-.01-.02-.01-.02h-.03s-.01-.02-.01-.02h-.08s-.02-.03-.02-.03h-.06s-.01-.02-.01-.02h-.03s-.01-.02-.01-.02h-.09s0,0,0,0h-.04s-.01-.02-.01-.02h-.09s-.01-.01-.01-.01h-.06s-.01-.02-.01-.02h-.01s-.02-.04-.02-.04h-.09s-.01-.01-.01-.01h-.03s0,0,0,0h-.1s-.01-.01-.01-.01h-.06s-.01-.02-.01-.02h-.03s-.01-.02-.01-.02h-.08s-.02-.03-.02-.03h-.06s-.01-.02-.01-.02h-.03s0,0,0,0h-.1s-.01-.01-.01-.01h-.03s-.01-.02-.01-.02h-.09s-.01-.01-.01-.01h-.06s-.01-.02-.01-.02h-.01s-.02-.04-.02-.04h-.09s-.01-.01-.01-.01h-.06s0,0,0,0h-.04s-.01-.02-.01-.02h-.09s-.01-.01-.01-.01h-.01s-.02-.04-.02-.04h-.09s-.01-.01-.01-.01h-.06s-.01-.02-.01-.02h-.03s0,0,0,0h-.1s-.01-.01-.01-.01h-.03s-.01-.02-.01-.02h-.09s-.01-.01-.01-.01h-.05s-.02-.03-.02-.03h-.03s-.01-.02-.01-.02h-.09s0,0,0,0h-.07s-.01-.02-.01-.02h-.03s-.01-.02-.01-.02h-.09s-.01-.01-.01-.01h-.01s-.02-.04-.02-.04h-.09s-.01-.01-.01-.01h-.06s0,0,0,0h-.04s-.01-.02-.01-.02h-.09s-.01-.01-.01-.01h-.06s-.01-.02-.01-.02h-.03s-.01-.02-.01-.02h-.08s-.02-.03-.02-.03h-.03s-.01-.02-.01-.02h-.09s0,0,0,0h-.07s-.01-.02-.01-.02h-.03s-.01-.02-.01-.02h-.08s-.02-.03-.02-.03h-.03s-.01-.02-.01-.02h-.09s-.01-.01-.01-.01h-.06s0,0,0,0h-.04s-.01-.02-.01-.02h-.09s-.01-.01-.01-.01h-.03s-.01-.02-.01-.02h-.08s-.02-.03-.02-.03h-.06s-.01-.02-.01-.02h-.03s0,0,0,0h-.1s-.01-.01-.01-.01h-.06s-.01-.02-.01-.02h-.03s-.01-.02-.01-.02h-.08s-.02-.03-.02-.03h-.03s-.01-.02-.01-.02h-.09s0,0,0,0h-.01s-.01-.03-.01-.03l-2.79.36-7.54,17.9-.63,1.67h.07s-.04.1-.04.1l.09-.02-.03.09.07-.02-.05.14.07-.02-.03.08.07-.02-.04.11.07-.02-.05.14.08-.02-.03.08h.05s-.04.1-.04.1l.09-.02-.05.15.07-.02-.03.08.07-.02-.05.14.07-.02-.03.08.07-.02-.04.11.07-.02-.05.13h.06s-.03.07-.03.07l.09-.02-.05.12.07-.02-.05.14.07-.02-.03.08.07-.02-.05.14.08-.02-.04.11h.05s-.03.07-.03.07h.07s-.05.13-.05.13l.1-.02-.05.12.07-.02-.03.08.07-.02-.05.14.07-.02-.03.08.07-.02-.04.11.07-.02-.05.13h.06s-.03.07-.03.07l.09-.02-.05.12.07-.02-.05.14.07-.02-.03.08.07-.02-.05.14.07-.02-.03.08.07-.02-.04.11h.05s-.05.13-.05.13l.1-.02-.03.09.07-.02-.04.11.07-.02-.05.14.07-.02-.03.08.07-.02-.05.14.08-.02-.04.11h.05s-.03.07-.03.07l.09-.02-.05.15.07-.02-.03.08.07-.02-.04.11.07-.02-.05.14.07-.02-.03.08.07-.02-.04.11h.05s-.05.13-.05.13l.1-.02-.03.09.07-.02-.04.11.07-.02-.05.14.07-.02-.03.08.07-.02-.05.14.08-.02-.03.08h.05s-.04.1-.04.1l.09-.02-.05.15.07-.02-.03.08.07-.02-.04.11.07-.02-.05.14.07-.02-.03.08.07-.02-.05.13h.06s-.04.1-.04.1l.07-.02-.03.08.09-.02-.05.15.07-.02-.03.08.07-.02-.04.11.07-.02-.05.14.08-.02-.03.08h.05s-.04.1-.04.1h.07s-.05.13-.05.13l.1-.02-.03.09.07-.02-.05.14.07-.02-.03.08.07-.02-.04.11.07-.02-.05.13h.06s-.03.07-.03.07l.07-.02-.04.11.09-.02-.05.15.07-.02-.03.08.07-.02-.05.14.08-.02-.04.11.07-.02-.03.08.07-.02-.05.13h.06s-.04.1-.04.1l.09-.02-.03.09.07-.02-.05.14.07-.02-.03.08.07-.02-.04.11.07-.02-.05.14.08-.02-.03.08h.05s-.04.1-.04.1l.09-.02-.05.15.07-.02-.03.08.07-.02-.05.14.07-.02-.03.08.07-.02-.04.11.07-.02-.05.13h.06s-.09.2-.09.2l4.67-1.04,2.74-6.57,7.3-1.46.04.09h.04s.05.11.05.11h.05s.04.08.04.08h.05s.04.08.04.08h.05s.03.07.03.07h.05s.04.08.04.08h.05s.04.08.04.08h.04s.05.1.05.1h.05s.04.08.04.08h.05s.04.08.04.08h.04s.04.09.04.09h.06s.03.06.03.06h.05s.04.08.04.08h.04s.05.1.05.1h.05s.04.08.04.08h.05s.04.08.04.08h.05s.04.08.04.08h.05s.03.07.03.07h.04s.04.08.04.08h.04s.05.11.05.11h.05s.04.08.04.08h.05s.04.08.04.08h.05s.04.08.04.08h.05s.04.08.04.08h.05s.03.07.03.07h.05s.04.08.04.08h.04s.05.1.05.1h.05s.04.08.04.08h.04s.04.09.04.09h.05s.04.08.04.08h.05s.03.07.03.07h.05s.04.08.04.08h.04s.05.1.05.1h.05s.04.08.04.08h.05s.04.08.04.08h.05s.04.08.04.08h.04s.03.07.03.07h.05s.04.09.04.09h.05s.05.1.05.1h.05s.04.08.04.08h.05s.04.08.04.08h.05s.04.08.04.08h.05s.03.07.03.07h.05s.04.08.04.08h.04s.05.1.05.1h.05s.04.08.04.08h.04s.04.09.04.09h.05s.04.08.04.08h.05s.04.08.04.08h.05s.03.07.03.07h.05s.04.08.04.08h.04s.05.1.05.1h.05s.04.08.04.08h.05s.04.08.04.08h.04s.07.17.07.17l3.95-.88L31.12,2.62Zm3.03,16.48l-11.45,2.28-2.74,6.58-2.4.54L28.21,3.23l2.23-.28,7.75,20.94-2.09.47-1.94-5.25Z"/>
  <polygon points="23.58 19.25 33.5 17.35 29.19 5.74 23.58 19.25"/>
</svg>