<?xml version="1.0" encoding="UTF-8"?>
<svg id="Layer_1" data-name="Layer 1" xmlns="http://www.w3.org/2000/svg" viewBox="0 0 50 30">
  <path d="m49.39,13.62l-8.86,3.38c-2.19.84-4.47,1.12-6.68.89l.1,1.07c.45.04.9.06,1.35.06,1.87,0,3.77-.34,5.6-1.04l8.86-3.38-.38-.98Z"/>
  <path d="m19.99,11.75l.78-.82c-3.65-1.58-7.81-1.7-11.69-.22L.23,14.09l.38.98,8.86-3.38c3.49-1.33,7.22-1.26,10.53.06Z"/>
  <path d="m29.41,3.36l-15.62,16.44,2.15.74,4.12-4.41,10.88,3.74.54,6.01,2.17.75-2.21-22.57-2.03-.7Zm-8.03,11.35l8.3-8.88,1.09,12.11-9.39-3.23Z"/>
</svg>