<?xml version="1.0" encoding="UTF-8"?>
<svg id="Layer_1" data-name="Layer 1" xmlns="http://www.w3.org/2000/svg" viewBox="0 0 50 30">
  <path d="m30.84.83l-2.3.32-6.21,26.35,2.42-.34,1.61-7.03,12.31-1.71,3.67,6.3,2.46-.34L30.84.83Zm-3.97,17.04l3.23-14.15,7.39,12.67-10.62,1.48Z"/>
  <polygon points="25.59 1.73 25.52 1.41 17.9 2.91 17.96 3.23 25.59 1.73"/>
  <polygon points="19.13 6.47 19.07 6.16 11.45 7.66 11.51 7.98 19.13 6.47"/>
  <polygon points="19.8 9.89 12.18 11.39 12.24 11.71 19.87 10.2 19.8 9.89"/>
  <polygon points="12.82 15.18 5.2 16.68 5.26 17 12.88 15.49 12.82 15.18"/>
  <polygon points="9.77 20.07 17.4 18.57 17.33 18.25 9.71 19.75 9.77 20.07"/>
  <polygon points="17.33 23.39 9.71 24.9 9.77 25.21 17.4 23.71 17.33 23.39"/>
  <polygon points="13.12 28.85 13.18 29.17 20.81 27.66 20.74 27.35 13.12 28.85"/>
</svg>