<?xml version="1.0" encoding="UTF-8"?>
<svg id="Layer_1" data-name="Layer 1" xmlns="http://www.w3.org/2000/svg" viewBox="0 0 50 30">
  <polygon points="20.09 14.3 29.82 14.3 24.95 3.43 20.09 14.3"/>
  <path d="m36.4,22.21h.06L26.52.44h-3.1l-9.45,20.67-.43,1.09h.06l-.03.07h.07l-.03.07h.06l-.03.07h.06l-.03.07h.06l-.03.07h.06l-.03.07h.07l-.03.07h.06l-.03.07h.06l-.03.07h.06l-.03.07h.07l-.03.07h.06l-.03.07h.06l-.03.07h.06l-.03.07h.07l-.03.07h.06l-.03.07h.06l-.03.07h.06l-.03.07h.07l-.03.07h.06l-.03.07h.06l-.03.07h.06l-.03.07h.07l-.03.07h.06l-.03.07h.06l-.03.07h.06l-.03.07h.07l-.03.07h.06l-.03.07h.06l-.03.07h.06l-.03.07h.07l-.03.07h.06l-.03.07h.06l-.03.07h.06l-.03.07h.07l-.03.07h.06l-.03.07h.06l-.03.07h.06l-.03.07h.07l-.03.07h.06l-.03.07h.06l-.03.07h.06l-.03.07h.07l-.03.07h.06l-.03.07h.06l-.03.07h.06l-.03.07h.07l-.03.07h.06l-.03.07h.06l-.03.07h.06l-.03.07h.07l-.03.07h.06l-.03.07h.06l-.03.07h.06l-.03.07h.07l-.03.07h.06l-.03.07h.06l-.03.07h.06l-.03.07h.07l-.03.07h.06l-.03.07h.06l-.03.07h.06l-.03.07h.07l-.03.07h.06l-.03.07h.06l-.03.07h.06l-.03.07h.07l-.03.07h.06l-.03.07h.06l-.03.07h.06l-.03.07h.07l-.03.07h.06l-.03.07h.06l-.03.07h.06l-.03.07h.07l-.03.07h.06l-.03.07h.06l-.03.07h.06l-.03.07h.07l-.03.07h.06l-.03.07h.06l-.03.07h.06l-.03.07h.07l-.03.07h.06l-.03.07h.06l-.03.07h.06l-.03.07h.06l-.03.07h.07l-.03.07h.06l-.03.07h.06l-.03.07h.07l-.03.07h.06l-.03.07h.06l-.03.07h.06l-.03.07h.06l-.03.07h.07l-.03.07h.06l-.03.07h.06l-.03.07h.07l-.03.07h.06l-.06.15h3.2l1.62-3.63h6.58l1.62,3.63h2.02l1.17-.07-.03-.07h.06s-.03-.07-.03-.07h.06s-.03-.07-.03-.07h.07s-.03-.07-.03-.07h.06s-.03-.07-.03-.07h.06s-.03-.07-.03-.07h.07s-.03-.07-.03-.07h.06s-.03-.07-.03-.07h.07s-.03-.07-.03-.07h.06s-.03-.07-.03-.07h.06s-.03-.07-.03-.07h.07s-.03-.07-.03-.07h.06s-.03-.07-.03-.07h.06s-.03-.07-.03-.07h.07s-.03-.07-.03-.07h.06s-.03-.07-.03-.07h.06s-.03-.07-.03-.07h.07s-.03-.07-.03-.07h.06s-.03-.07-.03-.07h.07s-.03-.07-.03-.07h.06s-.03-.07-.03-.07h.06s-.03-.07-.03-.07h.06s-.03-.07-.03-.07h.07s-.03-.07-.03-.07h.06s-.03-.07-.03-.07h.07s-.03-.07-.03-.07h.06s-.03-.07-.03-.07h.07s-.03-.07-.03-.07h.07s-.03-.07-.03-.07h.06s-.03-.07-.03-.07h.06s-.03-.07-.03-.07h.07s-.03-.07-.03-.07h.06s-.03-.07-.03-.07h.07s-.03-.07-.03-.07h.06s-.03-.07-.03-.07h.07s-.03-.07-.03-.07h.07s-.03-.07-.03-.07h.06s-.03-.07-.03-.07h.06s-.03-.07-.03-.07h.07s-.03-.07-.03-.07h.06s-.03-.07-.03-.07h.07s-.03-.07-.03-.07h.06s-.03-.07-.03-.07h.07s-.03-.07-.03-.07h.06s-.03-.07-.03-.07h.07s-.03-.07-.03-.07h.06s-.03-.07-.03-.07h.07s-.03-.07-.03-.07h.06s-.03-.07-.03-.07h.06s-.03-.07-.03-.07h.06s-.03-.07-.03-.07h.07s-.03-.07-.03-.07h.06s-.03-.07-.03-.07h.07s-.03-.07-.03-.07h.06s-.03-.07-.03-.07h.07s-.03-.07-.03-.07h.07s-.03-.07-.03-.07h.06s-.03-.07-.03-.07h.06s-.03-.07-.03-.07h.07s-.03-.07-.03-.07h.06s-.03-.07-.03-.07h.07s-.03-.07-.03-.07h.06s-.03-.07-.03-.07h.07s-.03-.07-.03-.07h.07s-.03-.07-.03-.07h.06s-.03-.07-.03-.07h.06s-.03-.07-.03-.07h.07s-.03-.07-.03-.07h.06s-.03-.07-.03-.07h.07s-.03-.07-.03-.07h.06s-.03-.07-.03-.07h.07s-.03-.07-.03-.07h.07s-.03-.07-.03-.07h.06s-.03-.07-.03-.07h.06s-.03-.07-.03-.07h.07s-.03-.07-.03-.07h.06s-.03-.07-.03-.07h.06s-.03-.07-.03-.07h.06s-.03-.07-.03-.07h.07s-.03-.07-.03-.07h.07s-.03-.07-.03-.07h.06s-.03-.07-.03-.07h.06s-.03-.07-.03-.07h.07s-.03-.07-.03-.07h.07s-.03-.07-.03-.07h.06s-.03-.07-.03-.07h.06s-.03-.07-.03-.07h.07s-.03-.07-.03-.07h.06s-.03-.07-.03-.07h.07s-.03-.07-.03-.07h.06s-.03-.07-.03-.07h.07s-.03-.07-.03-.07h.07s-.03-.07-.03-.07h.06s-.03-.07-.03-.07h.06s-.03-.07-.03-.07h.07s-.03-.07-.03-.07h.06s-.03-.07-.03-.07h.07s-.03-.07-.03-.07h.06s-.03-.07-.03-.07h.13s-.03-.08-.03-.08Zm-3.39-.77l-2.42-5.4h-11.28l-2.42,5.4h-2.22L23.91,1.22h2.11l9.24,20.22h-2.25Z"/>
</svg>