<?xml version="1.0" encoding="UTF-8"?>
<svg id="Layer_1" data-name="Layer 1" xmlns="http://www.w3.org/2000/svg" viewBox="0 0 50 30">
  <g>
    <path d="m17.75,7.93c-.73,0-1.27.36-1.64,1.09s-.54,1.64-.54,2.75v.26c0,1.13.18,2.05.54,2.76s.91,1.07,1.66,1.07,1.26-.36,1.63-1.08.54-1.64.54-2.76v-.26c0-1.11-.18-2.02-.55-2.75s-.91-1.09-1.64-1.09Z"/>
    <path d="m23.15,23.38v-.09c-.01-.05-.01-.11-.02-.16v-.08c0-.06-.01-.12-.02-.16v-.09c0-.06-.01-.12-.02-.17v-.09c0-.06-.01-.12-.02-.16v-.09c0-.06-.01-.12-.02-.16v-.09c-.01-.06-.01-.11-.02-.16v-.09c-.01-.06-.01-.11-.02-.16v-.09c-.01-.06-.01-.11-.02-.16v-.09c-.01-.06-.01-.11-.02-.16v-.09c-.01-.06-.01-.11-.02-.16v-.09c-.01-.06-.01-.12-.02-.16v-.09c-.01-.06-.01-.12-.02-.16v-.09c-.01-.06-.01-.12-.02-.16v-.09c-.01-.06-.01-.12-.02-.16v-.09c-.01-.06-.01-.11-.02-.16v-.1c-.01-.05-.01-.11-.02-.15v-.1c-.01-.05-.01-.11-.02-.15v-.1c-.01-.06-.01-.11-.02-.15v-.09c-.01-.06-.01-.12-.02-.16v-.09c-.01-.06-.01-.12-.02-.16v-.09c-.01-.06-.01-.12-.02-.16v-.09c-.01-.06-.01-.12-.02-.16v-.09c-.01-.06-.01-.11-.02-.16v-.1c-.01-.05-.01-.11-.02-.15v-.1c-.01-.05-.01-.11-.02-.15v-.1c-.01-.05-.01-.11-.02-.15v-.1c-.01-.05-.01-.11-.02-.15v-.1c-.01-.05-.01-.11-.02-.16v-.09c-.01-.06-.01-.11-.02-.15v-.09c-.01-.06-.01-.12-.02-.16v-.09c-.01-.06-.01-.12-.02-.16v-.09c-.01-.06-.01-.12-.02-.16v-.09c-.01-.06-.01-.11-.02-.16v-.1c-.01-.05-.01-.11-.02-.15v-.1c-.01-.05-.01-.11-.02-.15v-.1c-.01-.05-.01-.11-.02-.15v-.1c-.01-.06-.01-.11-.02-.16v-.09c-.01-.06-.01-.11-.02-.16v-.1c-.01-.05-.01-.11-.02-.16v-.1c-.01-.05-.01-.11-.02-.15v-.1c-.01-.05-.01-.11-.02-.15v-.1c-.01-.05-.01-.11-.02-.15v-.1c-.01-.05-.01-.11-.02-.15v-.1c-.01-.05-.01-.11-.02-.15v-.1c-.01-.05-.01-.11-.02-.15v-.1c-.01-.05-.01-.11-.02-.15v-.1c-.01-.05-.01-.11-.02-.15v-.1c-.01-.06-.01-.11-.02-.16v-.1c-.01-.05-.01-.11-.02-.16v-.09c-.01-.06-.01-.11-.02-.16-.13-1.22-.5-2.25-1.11-3.08-.79-1.06-1.89-1.6-3.26-1.6s-2.47.54-3.26,1.61c-.21.28-.39.59-.55.92v-.04h-.08v-.3h-.08v-.3h-.08v-.3h-.08v-.3h-.08v-.3h-.08v-.3h-.08v-.3h-.08v-.3h-.08v-.3h-.08v-.3h-.08v-.3h-.08v-.3h-.08v-.3h-.08v-.3h-.08v-.3h-.08v-.3h-.08v-.3h-.08v-.3h-.08v-.3h-.08v-.3H3.8v2.01h.13v.29h.13v.29h.13v.29h.13v.29h.13v.29h.13v.29h.13v.29h.13v.29h.13v.29h.13v.29h.13v.29h.13v.29h.13v.29h.13v.29h.13v.29h.13v.29h.13v.29h.13v.29h.13v.29h.13v.29h.13v.13l-2.72,5.22-.03,1.59h.13v.21h.13v.21h.13v.21h.13v.21h.13v.21h.13v.21h.13v.21h.13v.21h.13v.21h.13v.21h.13v.21h.13v.21h.13v.21h.13v.21h.13v.21h.13v.21h.13v.21h.13v.21h.13v.21h.13v.21h.13v.21h.13v.21h.13v.21h.13v.21h.13v.21h.13v.21h.13v.21h.13v.21h.13v.21h.13v.21h.13v.21h.13v.21h.13v.21h.13v.21h.13v.21h.13v.21h.13v.21h.13v.21h.13v.21h.13v.21h.13v.21h.13v.21h.13v.21h.13v.21h.13v.21h.13v.21h.13v.21h.13v.21h.13v.21h.13v.21h.13v.21h6.25v-1.54h-.08v-.22h-.08v-.22h-.08v-.22h-.08v-.22h-.08v-.22h-.08v-.22h-.08v-.22h-.08v-.22h-.08v-.22h-.08v-.22h-.08v-.22h-.08v-.22h-.08v-.22h-.08v-.22h-.08v-.22h-.08v-.22h-.08v-.22h-.08v-.22h-.08v-.22h-.08v-.22h-.08v-.22h-.08l.72-1.38s.03.09.04.14c.02.08.04.15.07.23.02.08.04.15.07.23.02.08.04.15.07.23.02.08.05.16.07.23.02.08.05.16.07.23.02.08.05.16.07.23.02.08.05.16.07.23.02.08.05.16.07.23.02.08.05.16.07.23.02.08.05.16.07.23.02.08.05.16.07.23.02.08.05.16.07.23.02.08.05.16.07.23.02.08.05.16.07.23.02.08.05.16.07.23.02.08.05.16.07.23.02.08.05.16.07.23.02.08.05.16.07.23.02.08.05.16.07.23.02.08.05.16.07.23.02.08.05.16.07.23.02.08.05.16.07.23.14.53.35.99.64,1.37.56.75,1.34,1.13,2.33,1.13s1.75-.38,2.31-1.13c.54-.73.82-1.67.82-2.81v-.18c0-.29-.02-.57-.06-.83Zm-10.83-6.21H3.99v-1.22l5.99-11.48h-5.93v-1.51h8.06v1.18l-6,11.53h6.2v1.5Zm9.62-5.14c0,1.58-.37,2.86-1.11,3.85s-1.76,1.49-3.05,1.49-2.33-.5-3.08-1.49-1.11-2.28-1.11-3.85v-.26c0-1.57.37-2.85,1.11-3.86s1.76-1.5,3.06-1.5,2.32.5,3.06,1.5,1.12,2.29,1.12,3.86v.26Z"/>
  </g>
  <path d="m45.42,7.38c-.57-.81-1.37-1.22-2.37-1.22-.68,0-1.29.19-1.79.57-.37.27-.68.62-.94,1.04-.22-.46-.5-.82-.85-1.08-.47-.35-1.03-.53-1.67-.53s-1.22.16-1.71.46c-.29.18-.56.42-.79.69l-.07-.96h-2.31v.25l-.05.03v.25l-.05.03v.25l-.05.03v.25l-.05.03v.25l-.05.02v.25l-.05.03v.25l-.05.03v.25l-.05.03v.25l-.05.03v.25l-.05.03v.25l-.05.03v.25l-.05.03v.25l-.05.03v.25l-.05.03v.25l-.05.03v.25l-.05.02v.25l-.05.03v.25l-.05.03v.25l-.05.03v.25l-.05.03v.25l-.05.03v.25l-.05.03v.25l-.05.03v.25l-.05.03v.25l-.05.02v.25l-.05.03v.25l-.05.03v.25l-.05.03v.25l-.05.03v.25l-.05.03v.25l-.05.03v.25l-.05.03v.25l-.05.03v.25l-.05.03v.25l-.05.03v.25l-.05.02v.25l-.05.03v.25l-.05.03v.25l-.05.03v.25l-.05.03v.25l-.05.03v.25l-.05.03v.25l-.05.03v.25l-.05.03v.25l-.05.02v.25l-.05.03v.25l-.05.03v.25l-.05.03v.25l-.05.03v.25l-.05.03v.25l-.05.03v7.81h1.88v-.21h.06v-.21h.06v-.21h.06v-.21h.06v-.21h.06v-.21h.06v-.21h.06v-.21h.06v-.21h.06v-.21h.06v-.21h.06v-.21h.06v-.21h.06v-.21h.06v-.21h.06v-.21h.06v-.21h.06v-.21h.06v-.21h.06v-.21h.06v-.21h.06v-.21h.06v-.21h.06v-.21h.06v-.21h.06v-.21h.06v-.21h.06v-.15c.12.29.18.72.18,1.29v4.57h1.87v-.21h.1v-.21h.1v-.21h.1v-.21h.1v-.21h.1v-.21h.1v-.21h.1v-.21h.1v-.21h.1v-.21h.1v-.21h.1v-.21h.1v-.21h.1v-.21h.1v-.21h.1v-.21h.1v-.21h.1v-.21h.1v-.21h.1v-.21h.05v4.23h1.88v-.21h.13v-.21h.13v-.21h.13v-.21h.13v-.21h.13v-.21h.13v-.21h.13v-.21h.13v-.21h.13v-.21h.13v-.21h.13v-.21h.13v-.21h.13v-.21h.13v-.21h.13v-.21h.13v-.21h.13v-.21h.13v-.21h.13v-.21h.13v-.21h.13v-.21h.13v-.21h.13v-.21h.13v-.21h.13v-.21h.13v-.21h.13v-.21h.13v-.21h.13v-.21h.13v-.21h.13v-.21h.13v-.21h.13v-.21h.13v-.21h.13v-.21h.13v-.21h.13v-.21h.13v-.21h.13v-.21h.13v-.21h.13v-.21h.13v-.21h.13v-.21h.13v-.21h.13v-.21h.13v-.21h.13v-.21h.13v-.21h.13v-.21h.13v-.21h.13v-6.49c0-1.57-.28-2.76-.83-3.55Zm.58,9.79h-1.99v-6.25c0-1.1-.14-1.87-.41-2.31s-.68-.66-1.22-.66c-.46,0-.84.17-1.15.51s-.54.78-.68,1.34c0,.12.01.24.02.37s0,.26,0,.39v6.62h-1.98v-6.25c0-1.06-.14-1.82-.42-2.28s-.69-.69-1.22-.69c-.43,0-.79.12-1.09.35s-.53.56-.7.97v7.9h-1.99V6.6h1.83l.11,1.44c.29-.52.67-.92,1.12-1.21s.98-.42,1.58-.42,1.09.16,1.52.48.75.81.97,1.47c.28-.61.65-1.09,1.12-1.44s1.01-.52,1.65-.52c.92,0,1.64.37,2.16,1.12s.79,1.88.79,3.4v6.24Z"/>
  <g>
    <path d="m27.35,7.93c-.73,0-1.27.36-1.64,1.09s-.54,1.64-.54,2.75v.26c0,1.13.18,2.05.54,2.76s.91,1.07,1.66,1.07,1.26-.36,1.63-1.08.54-1.64.54-2.76v-.26c0-1.11-.18-2.02-.55-2.75s-.91-1.09-1.64-1.09Z"/>
    <path d="m30.61,7.76c-.79-1.06-1.89-1.6-3.26-1.6s-2.47.54-3.26,1.61c-.77,1.04-1.16,2.39-1.16,4.01v.26s0,.08,0,.12v.13s0,.08.01.12v.13s0,.08.01.12v.12s0,.08.01.12v.13s0,.08.01.12v.12s0,.08.01.12v.12s0,.08.01.12v.12s0,.08.01.12v.13s0,.08.01.12v.12s0,.08.01.12v.13s0,.08.01.12v.12s0,.08.01.12v.13s0,.08.01.12v.12s0,.08.01.12v.12s0,.08.01.12v.12s0,.08.01.12v.13s0,.08.01.12v.12s0,.08.01.12v.12s0,.08.01.12v.12s0,.08.01.12v.12s0,.08.01.12v.12s0,.08.01.12v.12s0,.08.01.12v.12s0,.08.01.12v.13s0,.08.01.12v.12s0,.08.01.12v.12s0,.08.01.12v.12s0,.08.01.12v.12s0,.08.01.12v.12s0,.08.01.12v.12s0,.08.01.12v.12s0,.08.01.12v.12s0,.08.01.12v.12s0,.08.01.12v.12s0,.08.01.12v.12s0,.08.01.12v.12s0,.08.01.12v.12s0,.08.01.12v.12s0,.08.01.12v.12s0,.08.01.12v.12s0,.08.01.12v.12s0,.08.01.12v.12s0,.08.01.12v.12s0,.08.01.12v.12s0,.08.01.12v.12s0,.08.01.12v.12s0,.08.01.12v.12s0,.08.01.12v.12s0,.08.01.12v.12s0,.08.01.12v.12s0,.08.01.12v.12c0,1.14.28,2.09.82,2.81.56.75,1.34,1.13,2.33,1.13s1.75-.38,2.31-1.13c.42-.56.68-1.25.77-2.06v-.07c.02-.06.03-.12.04-.17v-.07c.02-.06.03-.11.04-.16v-.07c.02-.06.03-.12.04-.16v-.07c.02-.06.03-.12.04-.17v-.07c.02-.06.03-.11.04-.16v-.07c.02-.06.03-.11.04-.16v-.08c.02-.06.03-.11.04-.16v-.08c.02-.05.03-.11.04-.16v-.08c.02-.05.03-.11.04-.16v-.08c.02-.05.03-.11.04-.16v-.08c.02-.05.03-.11.04-.16v-.08c.02-.05.03-.11.04-.15v-.08c.02-.05.03-.11.04-.15v-.08c.02-.05.03-.11.04-.16v-.08c.02-.05.03-.11.04-.16v-.08c.02-.05.03-.11.04-.15v-.08c.02-.05.03-.11.04-.15v-.08c.02-.05.03-.11.04-.16l.02-.09c0-.05.02-.1.02-.15l.02-.09c0-.05.02-.1.02-.15v-.08c.02-.05.03-.11.04-.16v-.08c.02-.05.03-.11.04-.15v-.08c.02-.05.03-.11.04-.15v-.08c.02-.05.03-.11.04-.16v-.08c.02-.05.03-.11.04-.16v-.08c.02-.05.03-.11.04-.16v-.08c.02-.05.03-.11.04-.15v-.08c.02-.05.03-.11.04-.16v-.08c.02-.05.03-.1.04-.15l.02-.09c0-.05.02-.1.02-.15l.02-.09c0-.05.02-.1.02-.15l.02-.09c0-.05.02-.1.02-.15l.02-.09c0-.05.02-.1.02-.15l.02-.09c0-.05.02-.1.02-.15l.02-.09c0-.05.02-.1.02-.15v-.08c.02-.05.03-.1.04-.16v-.08c.02-.05.03-.11.04-.15v-.08c.02-.05.03-.11.04-.16v-.08c.02-.05.03-.11.04-.15v-.08c.02-.05.03-.11.04-.16v-.09c.02-.05.03-.1.04-.15v-.08c.02-.05.03-.1.04-.15l.02-.09c0-.05.02-.1.02-.15l.02-.09c0-.05.02-.1.02-.15l.02-.09c0-.05.02-.1.02-.15l.02-.09c0-.05.02-.1.02-.15l.02-.09c0-.05.02-.1.02-.15l.02-.09c0-.05.02-.1.02-.15l.02-.09c0-.05.02-.1.02-.15l.02-.09s.02-.1.02-.14c.07-.47.11-.91.11-1.34v-.26c0-1.62-.39-2.96-1.17-4.01Zm.92,4.27c0,1.58-.37,2.86-1.11,3.85s-1.76,1.49-3.05,1.49-2.33-.5-3.08-1.49-1.11-2.28-1.11-3.85v-.26c0-1.57.37-2.85,1.11-3.86s1.76-1.5,3.06-1.5,2.32.5,3.06,1.5,1.12,2.29,1.12,3.86v.26Z"/>
  </g>
</svg>