<?xml version="1.0" encoding="UTF-8"?>
<svg id="Layer_1" data-name="Layer 1" xmlns="http://www.w3.org/2000/svg" viewBox="0 0 50 30">
  <path d="m18.68,12.82l.04-.19h-.07l.04-.19h-.07l.04-.19h-.07l.04-.19h-.07l.04-.19h-.07l.04-.19h-.07l.04-.19h-.07l.04-.19h-.07l.04-.19h-.07l.04-.19h-.07l.04-.19h-.07l.04-.19h-.07l.04-.19h-.07l.04-.19h-.07l.04-.19h-.07l.04-.19h-.07l.04-.19h-.07l.04-.19h-.07l.04-.19h-.07l.04-.19h-.07l.04-.19h-.07l.04-.19h-.07l.04-.19h-.07l.04-.19h-.07l.04-.19h-.07l.04-.19h-.07l.04-.19h-.07l.04-.19h-.07l.04-.19h-.07l.04-.19h-.07l.04-.19h-.07l.04-.19h-.07l.04-.19h-.07l.04-.19h-.07l.04-.19h-.07l.04-.19h-.07l.04-.19h-.07l.04-.19h-.07l.04-.19h-.07l.04-.19h-.07l.04-.19h-.07l.04-.19h-.07l.04-.19h-.07l.04-.19h-.07l.04-.19h-.07l.04-.19h-.07l.04-.19h-.07l.04-.19h-.07l.04-.19h-.07l.04-.19h-.07l.04-.19h-2.1l-1.25,6.85-1.63-6.85h-1.71l-1.62,6.83-1.26-6.83h-2.11l.04.19h-.07l.04.19h-.07l.04.19h-.07l.04.19h-.07l.04.19h-.07l.04.19h-.07l.04.19h-.07l.04.19h-.07l.04.19h-.07l.04.19h-.07l.04.19h-.07l.04.19h-.07l.04.19h-.07l.04.19h-.07l.04.19h-.07l.04.19h-.07l.04.19h-.07l.04.19h-.07l.04.19h-.07l.04.19h-.07l.04.19h-.07l.04.19h-.07l.04.19h-.07l.04.19h-.07l.04.19h-.07l.04.19h-.07l.04.19h-.07l.04.19h-.07l.04.19h-.07l.04.19h-.07l.04.19h-.07l.04.19h-.07l.04.19h-.07l.04.19h-.07l.04.19h-.07l.04.19h-.07l.04.19h-.07l.04.19h-.07l.04.19h-.07l.04.19h-.07l.04.19h-.07l.04.19h-.07l.04.19h-.07l.04.19h-.07l.04.19h-.07l.04.19h-.07l.04.19h-.07l.04.19h-.07l.04.19h-.07l.04.19h-.07l.04.19h-.07l3.02,14.72h2.23l2.32-9.41,2.31,9.41h2.23l3.02-14.72h-.07Zm-3.15,14.47h-1.83l-2.48-10.09h-.06l-2.49,10.09h-1.83l-2.92-14.22h2.09l1.86,10.09h.06l2.39-10.09h1.73l2.41,10.11h.06l1.85-10.11h2.08l-2.92,14.22Z"/>
  <g>
    <path d="m22.29,13.59c-.34.39-.52.85-.52,1.4,0,.49.12.88.35,1.17s.57.44,1,.44c.54,0,1.02-.17,1.44-.5.42-.33.69-.74.82-1.22v-1.88h-1.65c-.61,0-1.09.19-1.44.58Z"/>
    <path d="m27.98,18.17h.04l-.1-.32c-.11-.36-.18-.72-.24-1.09-.05-.37-.08-.76-.08-1.14v-4.9c0-1.21-.35-2.15-1.05-2.81-.7-.66-1.61-.99-2.72-.99s-2.1.34-2.83,1c-.73.67-1.08,1.47-1.04,2.36l.02.08v.02s.02.1.02.1v.02s.02.1.02.1v.02s.02.1.02.1v.02s.02.1.02.1v.02s.02.1.02.1v.02s.02.1.02.1v.02s.02.11.02.11v.03l.02.08v.02s.02.1.02.1v.04l.02.08v.02s.02.1.02.1c0,.01,0,.03,0,.05l.02.07v.02s.02.1.02.1c0,.01,0,.03,0,.05l.02.07v.02s.02.1.02.1c0,.01,0,.03,0,.04l.02.07v.02s.02.1.02.1v.04l.02.08h0s.02.12.02.12c0,.01,0,.02,0,.04l.02.08h0s0,.04,0,.04c-.55.59-.83,1.34-.83,2.23,0,.27.02.54.07.81,0,.02,0,.05.02.09,0,.03,0,.05.02.08,0,.03,0,.05.02.1,0,.03,0,.05.02.09,0,.03,0,.05.02.08,0,.03,0,.06.02.1,0,.03,0,.05.02.08,0,.03,0,.05.02.1,0,.03,0,.05.02.09,0,.03,0,.05.02.08,0,.03,0,.06.02.1,0,.03,0,.05.02.08,0,.03,0,.05.02.1,0,.03,0,.05.02.09,0,.03,0,.05.02.08,0,.03,0,.05.02.1,0,.03,0,.05.02.09,0,.03,0,.05.02.09,0,.03,0,.05.02.09,0,.03,0,.05.02.08,0,.03,0,.05.02.1,0,.03,0,.05.02.09,0,.03,0,.05.02.09,0,.03,0,.05.02.09,0,.03,0,.05.02.08,0,.03,0,.06.02.1,0,.03,0,.05.02.09,0,.03,0,.05.02.08,0,.03,0,.05.02.1,0,.03,0,.05.02.08,0,.03,0,.05.02.1,0,.03,0,.05.02.09,0,.03,0,.05.02.08,0,.03,0,.05.02.1,0,.03,0,.05.02.08,0,.03,0,.05.02.1,0,.02,0,.05.02.09,0,.03,0,.05.02.08,0,.03,0,.05.02.1,0,.03,0,.05.02.09,0,.03,0,.05.02.08,0,.03,0,.05.02.1,0,.03,0,.05.02.08,0,.03,0,.05.02.1,0,.03,0,.05.02.09,0,.03,0,.05.02.08,0,.03,0,.05.02.1,0,.03,0,.05.02.09l.02.09s0,.05.02.09c.08.53.27.97.58,1.32.42.46,1.02.7,1.79.7.48,0,.92-.14,1.31-.43.19-.14.36-.3.51-.48.04.17.08.36.14.57l.05.19h2.01s-.02-.09-.02-.09h.04s-.03-.1-.03-.1h0s0-.05,0-.05h.05s-.02-.08-.02-.08h.04s-.02-.08-.02-.08h.04s-.02-.08-.02-.08h.06s-.02-.08-.02-.08h.04s-.02-.08-.02-.08h.05s-.02-.08-.02-.08h.04s-.02-.08-.02-.08h.02s-.02-.07-.02-.07h.04s-.02-.08-.02-.08h.04s-.02-.08-.02-.08h.04s-.02-.08-.02-.08h.06s-.02-.08-.02-.08h.05s-.02-.08-.02-.08h.04s-.03-.1-.03-.1h0s0-.05,0-.05h.05s-.02-.08-.02-.08h.04s-.02-.08-.02-.08h.04s-.02-.08-.02-.08h.06s-.02-.08-.02-.08h.05s-.02-.08-.02-.08h.04s-.03-.1-.03-.1h0s0-.05,0-.05h.05s-.02-.08-.02-.08h.04s-.02-.08-.02-.08h.04s-.02-.08-.02-.08h.06s-.02-.08-.02-.08h.05s-.02-.08-.02-.08h.04s-.03-.1-.03-.1h0s0-.05,0-.05h.05s-.02-.08-.02-.08h.04s-.02-.08-.02-.08h.04s-.02-.08-.02-.08h.06s-.02-.08-.02-.08h.04s-.02-.08-.02-.08h.05s-.03-.1-.03-.1h0s0-.05,0-.05h.05s-.02-.08-.02-.08h.04s-.02-.08-.02-.08h.04s-.02-.08-.02-.08h.06s-.02-.08-.02-.08h.04s-.02-.08-.02-.08h.05s-.03-.1-.03-.1h0s0-.05,0-.05h.06s-.02-.08-.02-.08h.04s-.02-.07-.02-.07h.04s-.02-.08-.02-.08h.06s-.02-.08-.02-.08h.04s-.02-.07-.02-.07Zm-2.3-.25c-.08-.32-.15-.6-.2-.85s-.08-.5-.09-.75c-.28.52-.65.95-1.11,1.29s-.98.51-1.57.51c-.94,0-1.67-.28-2.17-.84-.5-.56-.76-1.33-.76-2.29s.35-1.78,1.05-2.35c.7-.57,1.67-.86,2.92-.86h1.62v-1.08c0-.64-.14-1.15-.43-1.51-.29-.36-.7-.54-1.23-.54-.48,0-.86.16-1.15.47s-.42.71-.42,1.2h-1.89s-.02-.05-.02-.05c-.04-.82.28-1.54.96-2.17.68-.62,1.56-.94,2.66-.94s1.9.31,2.55.92c.65.62.98,1.49.98,2.63v4.9c0,.4.03.8.08,1.18.05.38.13.76.24,1.13h-2.01Z"/>
  </g>
  <g>
    <path d="m42.44,13.07c-.57,0-1.03.27-1.37.8-.34.53-.55,1.23-.63,2.1h3.74v-.22c0-.79-.14-1.44-.42-1.93s-.72-.74-1.31-.74Zm-1.3,1.44c.03-.16.06-.29.08-.39l.03-.06s.02-.04.03-.06h0c.29-.46.67-.68,1.16-.68.4,0,.71.14.94.42.07.26.1.51.11.77h-2.35Z"/>
    <path d="m46.39,16.26c0-1.49-.33-2.69-.99-3.59-.17-.23-.36-.43-.56-.59-.02-.02-.04-.03-.04-.03l-.17-.12h0s-.06-.04-.06-.04h0s-.05-.04-.06-.04h0s-.09-.06-.09-.06h0s0,0,0,0c-.03-.03-.06-.04-.07-.05h0s-.06-.04-.06-.04c-.49-.41-1.12-.61-1.87-.61s-1.41.24-1.96.72l-.04.03s0,0,0,0l-.36.28s-.02.02-.02.02l-.05.04c-.23.2-.45.43-.64.7-.77,1.03-1.16,2.37-1.16,3.96v.46c0,1.59.39,2.91,1.17,3.91.79,1.02,1.9,1.54,3.29,1.54.77,0,1.46-.13,2.07-.39.6-.26,1.1-.59,1.47-.97l.1-.17-.02-.04h0s-.02-.05-.02-.05h0s-.04-.09-.04-.09h0s-.02-.05-.02-.05h0s-.02-.04-.02-.04h0s-.01-.04-.01-.04h.01s-.05-.11-.05-.11h0s-.02-.05-.02-.05h0s-.02-.05-.02-.05h0s-.02-.04-.02-.04h0s-.02-.05-.02-.05h0s-.02-.04-.02-.04h0s-.02-.05-.02-.05h0s-.04-.09-.04-.09h0s-.04-.09-.04-.09h0s-.02-.05-.02-.05h0s-.02-.05-.02-.05h0s-.02-.05-.02-.05h0s-.02-.04-.02-.04h0s-.02-.05-.02-.05h0s-.01-.03-.01-.03h.01s-.04-.09-.04-.09h.01s-.08-.15-.08-.15h0s-.04-.1-.04-.1h0s-.02-.04-.02-.04h0s-.01-.04-.01-.04h.01s-.04-.09-.04-.09h.01s-.04-.09-.04-.09h.01s-.05-.11-.05-.11h0s-.02-.05-.02-.05h0s-.02-.05-.02-.05h0s-.04-.09-.04-.09h0s-.02-.05-.02-.05h0s-.02-.04-.02-.04h0s-.01-.04-.01-.04h.01s-.05-.11-.05-.11h0s-.02-.05-.02-.05h0s-.64-1.24-.64-1.24h1.58v-1.36Zm-.25,1.11h-5.73c0,1.08.19,1.96.58,2.63.39.67.98,1.01,1.78,1.01.55,0,1.04-.09,1.45-.26s.79-.42,1.13-.76l.64,1.23c-.35.36-.82.67-1.39.92s-1.23.37-1.97.37c-1.31,0-2.34-.48-3.09-1.45-.75-.96-1.12-2.22-1.12-3.76v-.46c0-1.55.37-2.82,1.11-3.81s1.71-1.49,2.91-1.49,2.12.43,2.75,1.28c.63.85.94,2,.94,3.44v1.11Zm-1.61.25l-.05.05c-.24.23-.51.41-.8.53-.28.12-.62.18-1.02.18-.53,0-.91-.21-1.16-.65-.02-.04-.04-.07-.06-.11h3.08Z"/>
  </g>
  <path d="m37.58,13.26v-.08s-.02,0-.02,0v-.08s-.02,0-.02,0v-.08s-.01,0-.01,0v-.08s-.02,0-.02,0v-.08s-.02,0-.02,0v-.08s-.01,0-.01,0v-.08s-.02,0-.02,0v-.08s-.02,0-.02,0v-.08s-.02,0-.02,0v-.08s-.02,0-.02,0v-.08s-.02,0-.02,0v-.08s-.01,0-.01,0v-.08s-.02,0-.02,0v-.08s-.02,0-.02,0v-.08s-.02,0-.02,0v-.08s-.02,0-.02,0v-.08s-.02,0-.02,0v-.08s-.01,0-.01,0v-.08s-.02,0-.02,0v-.08s-.02,0-.02,0v-.08s-.01,0-.01,0v-.08s-.02,0-.02,0v-.08s-.02,0-.02,0v-.08s-.01,0-.01,0v-.08s-.02,0-.02,0v-.08s-.02,0-.02,0v-.08s-.01,0-.01,0v-.08s-.02,0-.02,0v-.08s-.02,0-.02,0v-.08s-.01,0-.01,0v-.08s-.02,0-.02,0v-.08s-.02,0-.02,0v-.08s-.01,0-.01,0v-.08s-.02,0-.02,0v-.08s-.02,0-.02,0v-.08s-.01,0-.01,0v-.08s-.02,0-.02,0v-.08s-.02,0-.02,0v-.08s-.01,0-.01,0v-.08s-.02,0-.02,0v-.08s-.02,0-.02,0v-.08s-.01,0-.01,0v-.08s-.02,0-.02,0v-.08s-.02,0-.02,0v-.08s-.01,0-.01,0v-.08s-.02,0-.02,0v-.08s-.02,0-.02,0v-.08s-.01,0-.01,0v-.08s-.02,0-.02,0l.04-.16h-2.13l-1.4,5.6-1.41-5.6h-2.15l.02.08h-.04l.02.08h-.05l.02.08h-.04l.02.08h-.04l.02.08h-.05l.02.08h-.04l.02.08h-.04l.02.08h-.05l.02.08h-.04l.02.08h-.04l.02.08h-.05l.02.08h-.04l.02.08h-.04l.02.08h-.05l.02.08h-.04l.02.08h-.04l.02.08h-.05l.02.08h-.04l.02.08h-.04l.02.08h-.05l.02.08h-.04l.02.08h-.04l.02.08h-.05l.02.08h-.04l.02.08h-.04l.02.08h-.05l.02.08h-.04l.02.08h-.04l.02.08h-.05l.02.08h-.04l.02.08h-.04l.02.08h-.05l.02.08h-.04l.02.08h-.04l.02.08h-.04l.02.08h-.04l.02.08h-.04l.02.08h-.05l.02.08h-.04l.02.08h-.04l.02.08h-.04l.02.08h-.04l.02.08h-.04l.02.08h-.05l.02.08h-.04l.02.08h-.04l.02.08h-.05l.02.08h-.04l.02.08h-.04l.02.08h-.05l.02.08h-.04l3.4,11.07h2.14l3.38-11.07h-.07Zm-3.49,10.82h-1.77l-3.24-10.57h2.07l1.87,7.39.17.83h.06l.18-.83,1.85-7.39h2.05l-3.22,10.57Z"/>
</svg>