<?xml version="1.0" encoding="UTF-8"?>
<svg id="Layer_1" data-name="Layer 1" xmlns="http://www.w3.org/2000/svg" viewBox="0 0 50 30">
  <path d="m23.17,23.93h2.07l-5.04-19.6h-2.04L5.28,23.93h2.24l3.38-5.24h10.97l1.3,5.24Zm-11.19-6.92l6.83-10.6,2.64,10.6h-9.47Z"/>
  <path d="m42.41,9.19l-.62,3.07c-.08-.18-.15-.36-.25-.53-.49-.87-1.18-1.53-2.07-1.99-.9-.46-1.99-.69-3.28-.69-1.2,0-2.3.21-3.32.64s-1.9,1.04-2.65,1.83c-.75.79-1.33,1.72-1.74,2.79-.41,1.06-.62,2.22-.62,3.47s.27,2.4.81,3.33c.54.93,1.3,1.65,2.27,2.16.97.5,2.08.76,3.33.76,1.62,0,3.03-.39,4.23-1.18.56-.37,1.06-.81,1.5-1.31l-.47,2.35h1.9l2.94-14.7h-1.99Zm-4.41,12.19c-.96.59-2.06.88-3.29.88-1.53,0-2.72-.4-3.57-1.2-.85-.8-1.27-1.92-1.27-3.36,0-1.34.27-2.53.83-3.57.55-1.04,1.31-1.85,2.28-2.45.97-.6,2.06-.9,3.28-.9,1.53,0,2.72.4,3.57,1.2.85.8,1.27,1.93,1.27,3.39,0,1.33-.28,2.51-.83,3.56-.55,1.05-1.31,1.86-2.27,2.45Z"/>
</svg>